<?xml version="1.0" encoding="UTF-8" standalone="no"?>
<!-- Generator: Adobe Illustrator 19.0.0, SVG Export Plug-In . SVG Version: 6.00 Build 0)  -->

<svg
   xmlns:dc="http://purl.org/dc/elements/1.1/"
   xmlns:cc="http://creativecommons.org/ns#"
   xmlns:rdf="http://www.w3.org/1999/02/22-rdf-syntax-ns#"
   xmlns:svg="http://www.w3.org/2000/svg"
   xmlns="http://www.w3.org/2000/svg"
   xmlns:sodipodi="http://sodipodi.sourceforge.net/DTD/sodipodi-0.dtd"
   xmlns:inkscape="http://www.inkscape.org/namespaces/inkscape"
   version="1.1"
   id="Layer_1"
   x="0px"
   y="0px"
   viewBox="0 0 511.999 511.999"
   style="enable-background:new 0 0 511.999 511.999;"
   xml:space="preserve"
   sodipodi:docname="jigsawsRight.svg"
   inkscape:version="0.92.4 (5da689c313, 2019-01-14)"><metadata
   id="metadata49"><rdf:RDF><cc:Work
       rdf:about=""><dc:format>image/svg+xml</dc:format><dc:type
         rdf:resource="http://purl.org/dc/dcmitype/StillImage" /><dc:title></dc:title></cc:Work></rdf:RDF></metadata><defs
   id="defs47" /><sodipodi:namedview
   pagecolor="#ffffff"
   bordercolor="#666666"
   borderopacity="1"
   objecttolerance="10"
   gridtolerance="10"
   guidetolerance="10"
   inkscape:pageopacity="0"
   inkscape:pageshadow="2"
   inkscape:window-width="1920"
   inkscape:window-height="1017"
   id="namedview45"
   showgrid="false"
   inkscape:zoom="0.46093841"
   inkscape:cx="255.9995"
   inkscape:cy="255.9995"
   inkscape:window-x="-8"
   inkscape:window-y="-8"
   inkscape:window-maximized="1"
   inkscape:current-layer="Layer_1" />

<g
   id="g862"
   transform="matrix(-1,0,0,1,512,0)"
   style="fill:#ffffff;fill-opacity:1"><g
     id="g6"
     style="fill:#ffffff;fill-opacity:1">
	<g
   id="g4"
   style="fill:#ffffff;fill-opacity:1">
		<path
   id="path2"
   d="m 183.445,81.304 c 9.436,0 18.301,4.587 23.713,12.27 1.882,2.672 5.279,3.817 8.393,2.831 3.116,-0.987 5.233,-3.879 5.233,-7.147 V 7.497 C 220.784,3.357 217.428,0 213.287,0 H 7.848 C 3.707,0 0.351,3.357 0.351,7.497 v 51.638 c 0,4.14 3.356,7.497 7.497,7.497 4.141,0 7.497,-3.357 7.497,-7.497 V 14.994 h 190.444 v 57.403 c -6.679,-3.929 -14.378,-6.087 -22.345,-6.087 -24.182,0 -43.853,19.672 -43.853,43.853 0,24.181 19.672,43.854 43.853,43.854 7.967,0 15.666,-2.159 22.345,-6.087 v 57.403 h -74.787 c -3.288,0 -6.192,2.142 -7.163,5.283 -0.971,3.142 0.219,6.548 2.933,8.404 7.892,5.394 12.603,14.307 12.603,23.844 0,15.914 -12.946,28.86 -28.86,28.86 -15.913,0 -28.859,-12.946 -28.859,-28.86 0,-9.536 4.711,-18.451 12.602,-23.844 2.714,-1.855 3.903,-5.262 2.933,-8.404 -0.972,-3.141 -3.876,-5.283 -7.163,-5.283 H 15.346 V 84.126 c 0,-4.14 -3.356,-7.497 -7.497,-7.497 -4.141,0 -7.497,3.357 -7.497,7.497 v 128.703 c 0,4.14 3.356,7.497 7.497,7.497 h 65.048 c -4.023,6.713 -6.236,14.478 -6.236,22.536 0,24.182 19.672,43.854 43.853,43.854 24.181,0 43.854,-19.672 43.854,-43.854 0,-8.058 -2.212,-15.823 -6.236,-22.536 h 65.154 c 4.141,0 7.497,-3.357 7.497,-7.497 v -81.76 c 0,-3.269 -2.117,-6.16 -5.232,-7.147 -3.114,-0.986 -6.513,0.158 -8.394,2.83 -5.412,7.684 -14.276,12.27 -23.713,12.27 -15.913,0 -28.859,-12.946 -28.859,-28.86 0.002,-15.912 12.948,-28.858 28.86,-28.858 z"
   inkscape:connector-curvature="0"
   style="fill:#ffffff;fill-opacity:1" />
	</g>
</g><g
     id="g12"
     style="fill:#ffffff;fill-opacity:1">
	<g
   id="g10"
   style="fill:#ffffff;fill-opacity:1">
		<path
   id="path8"
   d="m 504.151,185.64 c 4.141,0 7.497,-3.357 7.497,-7.497 V 98.077 c 0,-4.14 -3.356,-7.497 -7.497,-7.497 H 300.833 c -4.14,0 -7.497,3.357 -7.497,7.497 v 64.226 c -6.605,-3.936 -14.224,-6.099 -22.122,-6.099 -23.974,0 -43.478,19.504 -43.478,43.478 0,23.974 19.504,43.478 43.478,43.478 7.897,0 15.515,-2.163 22.122,-6.099 v 56.729 h -73.525 c -3.269,0 -6.16,2.117 -7.146,5.233 -0.988,3.116 0.157,6.512 2.829,8.394 7.585,5.342 12.112,14.053 12.112,23.3 0,15.706 -12.778,28.484 -28.484,28.484 -15.706,0 -28.484,-12.778 -28.484,-28.484 0,-9.247 4.527,-17.958 12.112,-23.3 2.672,-1.882 3.817,-5.278 2.829,-8.394 -0.987,-3.116 -3.878,-5.233 -7.146,-5.233 H 97.516 c -4.141,0 -7.497,3.357 -7.497,7.497 v 118.394 c 0,4.14 3.356,7.497 7.497,7.497 4.141,0 7.497,-3.357 7.497,-7.497 V 308.786 h 56.584 c -3.843,6.571 -5.954,14.126 -5.954,21.932 0,23.974 19.504,43.478 43.478,43.478 23.974,0 43.478,-19.504 43.478,-43.478 0,-7.807 -2.111,-15.361 -5.954,-21.932 h 56.689 v 73.42 0.414 c 0,3.288 2.142,6.192 5.283,7.162 3.142,0.972 6.547,-0.218 8.404,-2.933 5.316,-7.778 14.058,-12.425 23.391,-12.437 15.684,0.025 28.437,12.792 28.437,28.483 0,15.69 -12.753,28.457 -28.437,28.482 -9.333,-0.013 -18.075,-4.659 -23.392,-12.437 -1.854,-2.714 -5.261,-3.904 -8.403,-2.932 -3.142,0.971 -5.283,3.875 -5.283,7.163 v 0.414 73.42 H 105.013 v -52.332 c 0,-4.14 -3.356,-7.497 -7.497,-7.497 -4.141,0 -7.497,3.357 -7.497,7.497 v 59.829 c 0,4.14 3.356,7.497 7.497,7.497 h 203.317 203.319 c 4.141,0 7.497,-3.357 7.497,-7.497 V 301.29 203.133 c 0,-4.14 -3.356,-7.497 -7.497,-7.497 -4.141,0 -7.497,3.357 -7.497,7.497 v 90.66 H 440.07 c 3.843,-6.571 5.954,-14.126 5.954,-21.932 0,-0.056 -0.004,-0.112 -0.004,-0.169 0,-0.042 0.004,-0.084 0.004,-0.126 0,-23.974 -19.504,-43.478 -43.477,-43.478 -23.974,0 -43.478,19.505 -43.478,43.478 0,0.042 0.004,0.084 0.004,0.126 -10e-4,0.056 -0.004,0.112 -0.004,0.169 0,7.807 2.111,15.361 5.954,21.932 h -56.69 v -73.834 c 0,-3.288 -2.141,-6.192 -5.283,-7.163 -3.142,-0.972 -6.549,0.218 -8.404,2.933 -5.322,7.789 -14.081,12.438 -23.429,12.438 -15.706,0 -28.484,-12.778 -28.484,-28.484 0,-15.706 12.778,-28.484 28.484,-28.484 9.348,0 18.106,4.649 23.429,12.437 1.854,2.714 5.26,3.906 8.404,2.933 3.142,-0.971 5.283,-3.875 5.283,-7.163 v -73.834 h 188.325 v 72.568 c -0.004,4.143 3.353,7.5 7.493,7.5 z M 308.33,308.786 h 73.525 v 10e-4 h 0.414 c 3.288,0 6.192,-2.142 7.162,-5.283 0.972,-3.142 -0.218,-6.548 -2.932,-8.404 -7.752,-5.298 -12.391,-14.039 -12.434,-23.401 0.088,-15.632 12.828,-28.323 28.48,-28.323 15.652,0 28.391,12.691 28.479,28.323 -0.044,9.362 -4.682,18.103 -12.434,23.401 -2.714,1.855 -3.902,5.262 -2.932,8.404 0.971,3.141 3.875,5.283 7.162,5.283 h 0.414 73.42 V 497.006 H 308.33 v -56.598 c 6.594,3.851 14.186,5.967 22.038,5.967 0.016,0 0.033,-10e-4 0.049,-10e-4 0.012,0 0.024,10e-4 0.036,10e-4 23.974,0 43.478,-19.505 43.478,-43.478 0,-23.974 -19.504,-43.478 -43.478,-43.478 -0.012,0 -0.024,0.001 -0.036,0.001 -0.016,0 -0.033,-0.001 -0.049,-0.001 -7.851,0 -15.443,2.116 -22.038,5.967 z"
   inkscape:connector-curvature="0"
   style="fill:#ffffff;fill-opacity:1" />
	</g>
</g></g>
<g
   id="g14">
</g>
<g
   id="g16">
</g>
<g
   id="g18">
</g>
<g
   id="g20">
</g>
<g
   id="g22">
</g>
<g
   id="g24">
</g>
<g
   id="g26">
</g>
<g
   id="g28">
</g>
<g
   id="g30">
</g>
<g
   id="g32">
</g>
<g
   id="g34">
</g>
<g
   id="g36">
</g>
<g
   id="g38">
</g>
<g
   id="g40">
</g>
<g
   id="g42">
</g>
</svg>