<?xml version="1.0" encoding="utf-8"?>
<!-- Generator: Adobe Illustrator 16.0.0, SVG Export Plug-In . SVG Version: 6.00 Build 0)  -->
<!DOCTYPE svg PUBLIC "-//W3C//DTD SVG 1.1//EN" "http://www.w3.org/Graphics/SVG/1.1/DTD/svg11.dtd">
<svg version="1.1" id="Layer_1" xmlns="http://www.w3.org/2000/svg" xmlns:xlink="http://www.w3.org/1999/xlink" x="0px" y="0px"
	 width="340px" height="66px" viewBox="0 0 340 66" enable-background="new 0 0 340 66" xml:space="preserve">
<g>
	<rect x="27.214" y="10.026" fill="#238CCC" width="28.598" height="1.01"/>
	<rect x="27.214" y="10.026" fill="#28A8E0" width="14.3" height="1.01"/>
	<rect x="34.325" y="43.211" fill="#238CCC" width="14.379" height="3.418"/>
	<rect x="34.325" y="43.211" fill="#28A8E0" width="7.189" height="3.418"/>
	<rect x="35.841" y="41.345" fill="#238CCC" width="11.346" height="1.091"/>
	<rect x="35.841" y="41.345" fill="#28A8E0" width="5.673" height="1.091"/>
	<rect x="40.737" y="1.866" fill="#238CCC" width="1.554" height="39.479"/>
	<rect x="40.737" y="1.866" fill="#28A8E0" width="0.777" height="39.479"/>
	<path fill="#28A8E0" d="M43.029,1.517c0,0.836-0.679,1.515-1.514,1.515c-0.84,0-1.517-0.679-1.517-1.515
		C39.999,0.681,40.676,0,41.516,0C42.351,0,43.029,0.681,43.029,1.517"/>
	<path fill="#238CCC" d="M45.323,10.569c0,2.105-1.707,3.81-3.809,3.81c-2.104,0-3.808-1.704-3.808-3.81
		c0-2.103,1.704-3.807,3.808-3.807C43.616,6.762,45.323,8.466,45.323,10.569"/>
	<path fill="#28A8E0" d="M41.514,14.379c-2.104,0-3.808-1.704-3.808-3.81c0-2.103,1.704-3.807,3.808-3.807"/>
	<line fill="#1D76BB" x1="27.103" y1="11.658" x2="34.871" y2="24.888"/>
	
		<line fill="none" stroke="#1D76BB" stroke-width="0.283" stroke-miterlimit="10" x1="27.103" y1="11.658" x2="34.871" y2="24.888"/>
	<line fill="#1D76BB" x1="27.227" y1="11.967" x2="19.551" y2="24.888"/>
	
		<line fill="none" stroke="#1D76BB" stroke-width="0.283" stroke-miterlimit="10" x1="27.227" y1="11.967" x2="19.551" y2="24.888"/>
	<line fill="#1D76BB" x1="27.227" y1="11.967" x2="27.227" y2="24.637"/>
	
		<line fill="none" stroke="#1D76BB" stroke-width="0.283" stroke-miterlimit="10" x1="27.227" y1="11.967" x2="27.227" y2="24.637"/>
	<path fill="#238CCC" d="M35.153,24.637c0,4.377-3.548,7.928-7.927,7.928c-4.377,0-7.928-3.55-7.928-7.928H35.153z"/>
	<line fill="#1D76BB" x1="55.688" y1="11.967" x2="63.456" y2="25.196"/>
	
		<line fill="none" stroke="#1D76BB" stroke-width="0.283" stroke-miterlimit="10" x1="55.688" y1="11.967" x2="63.456" y2="25.196"/>
	<line fill="#1D76BB" x1="55.813" y1="12.28" x2="48.136" y2="25.196"/>
	<line fill="none" stroke="#1D76BB" stroke-width="0.283" stroke-miterlimit="10" x1="55.813" y1="12.28" x2="48.136" y2="25.196"/>
	<line fill="#1D76BB" x1="55.813" y1="12.28" x2="55.813" y2="24.946"/>
	<line fill="none" stroke="#1D76BB" stroke-width="0.283" stroke-miterlimit="10" x1="55.813" y1="12.28" x2="55.813" y2="24.946"/>
	<path fill="#238CCC" d="M63.741,24.946c0,4.38-3.549,7.93-7.928,7.93c-4.377,0-7.928-3.55-7.928-7.93H63.741z"/>
	<path fill="#28A8E0" d="M27.227,24.637v7.928c-4.377,0-7.928-3.55-7.928-7.928H27.227"/>
	<path fill="#28A8E0" d="M55.689,24.946v7.93c-4.377,0-7.928-3.55-7.928-7.93H55.689"/>
</g>
<g>
	<path fill="#238CCC" d="M117.866,23.371v4.125h-17.826v3.029h15.445v4.058h-15.445v3.192h17.826V41.9H94.982V23.371H117.866z"/>
	<path fill="#238CCC" d="M125.359,23.371v12.24c0,0.595,0.229,1.109,0.689,1.542c0.46,0.406,1.023,0.613,1.691,0.622h10.319
		c0.676-0.027,1.24-0.239,1.691-0.636c0.459-0.433,0.689-0.942,0.689-1.528v-12.24h5.059V36.49c0.009,1.497-0.568,2.773-1.731,3.828
		c-1.154,1.055-2.561,1.583-4.22,1.583h-13.294c-1.65,0-3.057-0.527-4.22-1.583c-1.154-1.055-1.731-2.331-1.731-3.828V23.371
		H125.359z"/>
	<path fill="#238CCC" d="M167.29,23.371c1.794,0,3.327,0.577,4.599,1.731c1.271,1.154,1.907,2.547,1.907,4.179
		c0,1.506-0.55,2.813-1.65,3.922c-1.1,1.082-2.471,1.717-4.111,1.907l6.032,6.79h-5.883l-5.572-6.722h-8.453V41.9h-5.058V23.371
		H167.29z M154.157,31.094l12.646,0.013c0.595,0,1.068-0.171,1.42-0.514c0.379-0.352,0.563-0.785,0.555-1.298
		c0.009-0.541-0.176-0.974-0.555-1.298c-0.352-0.361-0.825-0.527-1.42-0.5h-12.646V31.094z"/>
	<path fill="#238CCC" d="M196.936,23.371c1.659,0,3.066,0.527,4.22,1.583c1.163,1.055,1.74,2.331,1.731,3.827v7.709
		c0.009,1.497-0.568,2.773-1.731,3.828c-1.154,1.055-2.561,1.583-4.22,1.583h-14.485c-1.65,0-3.057-0.527-4.22-1.583
		c-1.154-1.055-1.731-2.331-1.731-3.828v-7.709c0-1.497,0.577-2.772,1.731-3.827c1.163-1.055,2.57-1.583,4.22-1.583H196.936z
		 M182.248,28.132c-0.46,0.396-0.69,0.906-0.69,1.528v5.951c0,0.595,0.23,1.109,0.69,1.542c0.459,0.406,1.023,0.613,1.69,0.622
		h11.509c0.676-0.027,1.24-0.239,1.69-0.636c0.46-0.433,0.69-0.942,0.69-1.528V29.66c0-0.622-0.23-1.136-0.69-1.542
		c-0.451-0.441-1.014-0.649-1.69-0.622h-11.509C183.271,27.487,182.708,27.699,182.248,28.132z"/>
	<path fill="#FCB646" d="M225.364,23.371c1.659,0,3.066,0.527,4.22,1.583c1.163,1.055,1.74,2.331,1.731,3.827v1.19h-5.059V29.66
		c0-0.622-0.23-1.136-0.689-1.542c-0.451-0.441-1.015-0.649-1.691-0.622h-11.104c-0.649-0.009-1.213,0.203-1.69,0.636
		c-0.46,0.396-0.69,0.906-0.69,1.528v5.951c0,0.595,0.234,1.109,0.703,1.542c0.469,0.406,1.028,0.613,1.677,0.622h11.104
		c0.676-0.027,1.24-0.239,1.691-0.636c0.459-0.433,0.689-0.942,0.689-1.528v-0.284h5.059v1.163c0.009,1.497-0.568,2.773-1.731,3.828
		c-1.154,1.055-2.561,1.583-4.22,1.583h-14.079c-1.65,0-3.056-0.527-4.219-1.583c-1.154-1.055-1.731-2.331-1.731-3.828v-7.709
		c0-1.497,0.582-2.772,1.745-3.827c1.163-1.055,2.565-1.583,4.206-1.583H225.364z"/>
	<path fill="#FCB646" d="M249.75,23.371L261.516,41.9h-5.45l-2.556-4.058h-12.538l-2.583,4.058h-5.437l11.767-18.529H249.75z
		 M243.46,33.92h7.547l-3.76-5.951L243.46,33.92z"/>
	<path fill="#FCB646" d="M280.437,23.371c1.704,0,3.147,0.545,4.328,1.637c1.19,1.091,1.785,2.412,1.785,3.962v0.081h-4.923
		c0.027-0.054,0.032-0.081,0.013-0.081c0-0.406-0.153-0.744-0.459-1.014c-0.289-0.298-0.663-0.433-1.123-0.406h-10.536
		c-0.433-0.027-0.802,0.113-1.109,0.419c-0.297,0.27-0.446,0.604-0.446,1c0.009,0.397,0.163,0.735,0.46,1.014
		c0.297,0.28,0.663,0.419,1.096,0.419c1.244,0,3.165-0.004,5.761-0.014c2.597-0.027,4.513-0.027,5.748,0
		c1.758-0.009,3.246,0.555,4.463,1.691c1.253,1.118,1.866,2.475,1.839,4.071c0.009,1.596-0.609,2.953-1.853,4.071
		c-1.208,1.118-2.691,1.677-4.45,1.677h-12.267c-1.731,0-3.219-0.559-4.463-1.677c-1.226-1.118-1.839-2.475-1.839-4.071h4.734v0.027
		c0,0.451,0.176,0.839,0.527,1.163c0.352,0.325,0.771,0.487,1.258,0.487h11.577c0.504-0.027,0.928-0.185,1.271-0.473
		c0.343-0.325,0.514-0.708,0.514-1.149c0-0.46-0.176-0.848-0.527-1.163c-0.352-0.325-0.771-0.487-1.258-0.487h-11.942
		c-1.695-0.009-3.138-0.555-4.328-1.637c-1.19-1.1-1.785-2.417-1.785-3.949c0-1.551,0.595-2.854,1.785-3.909
		c1.182-1.073,2.624-1.636,4.328-1.69H280.437z"/>
	<path fill="#FCB646" d="M312.693,23.371v4.125h-17.825v3.029h15.445v4.058h-15.445v3.192h17.825V41.9h-22.884V23.371H312.693z"/>
	<path fill="#FCB646" d="M333.102,23.371c1.704,0,3.147,0.545,4.328,1.637c1.19,1.091,1.785,2.412,1.785,3.962v0.081h-4.923
		c0.027-0.054,0.032-0.081,0.014-0.081c0-0.406-0.154-0.744-0.46-1.014c-0.288-0.298-0.663-0.433-1.123-0.406h-10.535
		c-0.433-0.027-0.803,0.113-1.109,0.419c-0.297,0.27-0.446,0.604-0.446,1c0.009,0.397,0.162,0.735,0.46,1.014
		c0.297,0.28,0.663,0.419,1.096,0.419c1.244,0,3.165-0.004,5.761-0.014c2.597-0.027,4.513-0.027,5.748,0
		c1.758-0.009,3.246,0.555,4.463,1.691c1.253,1.118,1.867,2.475,1.839,4.071c0.009,1.596-0.608,2.953-1.853,4.071
		c-1.208,1.118-2.692,1.677-4.45,1.677H321.43c-1.731,0-3.219-0.559-4.463-1.677c-1.226-1.118-1.839-2.475-1.839-4.071h4.734v0.027
		c0,0.451,0.175,0.839,0.527,1.163c0.352,0.325,0.771,0.487,1.258,0.487h11.577c0.505-0.027,0.929-0.185,1.271-0.473
		c0.343-0.325,0.514-0.708,0.514-1.149c0-0.46-0.176-0.848-0.528-1.163c-0.352-0.325-0.771-0.487-1.258-0.487h-11.942
		c-1.695-0.009-3.137-0.555-4.328-1.637c-1.19-1.1-1.785-2.417-1.785-3.949c0-1.551,0.595-2.854,1.785-3.909
		c1.181-1.073,2.624-1.636,4.328-1.69H333.102z"/>
</g>
<g>
	<polygon fill="#FCB646" points="3.706,32.474 5.141,29.6 6.549,32.486 9.726,32.963 7.414,35.193 7.944,38.361 5.107,36.854 
		2.258,38.335 2.815,35.173 0.524,32.92 	"/>
	<polygon fill="#FCB646" points="8.809,44.97 10.243,42.097 11.651,44.982 14.829,45.459 12.517,47.69 13.047,50.857 10.209,49.35 
		7.361,50.833 7.917,47.669 5.627,45.417 	"/>
	<polygon fill="#FCB646" points="3.182,17.391 4.616,14.518 6.024,17.403 9.201,17.88 6.89,20.111 7.42,23.279 4.583,21.771 
		1.733,23.253 2.29,20.091 0,17.838 	"/>
	<polygon fill="#FCB646" points="19.165,55.002 20.598,52.128 22.006,55.014 25.184,55.49 22.872,57.721 23.402,60.89 
		20.564,59.381 17.716,60.863 18.272,57.701 15.982,55.449 	"/>
	<polygon fill="#FCB646" points="33.282,59.382 34.716,56.508 36.125,59.395 39.302,59.871 36.99,62.103 37.52,65.271 
		34.683,63.762 31.834,65.245 32.391,62.082 30.1,59.83 	"/>
	<polygon fill="#FCB646" points="8.809,2.874 10.243,0 11.651,2.886 14.829,3.362 12.517,5.594 13.047,8.762 10.209,7.254 
		7.361,8.736 7.917,5.574 5.627,3.321 	"/>
	<polygon fill="#FCB646" points="79.334,32.474 77.899,29.6 76.491,32.486 73.315,32.963 75.626,35.193 75.096,38.361 
		77.933,36.854 80.782,38.335 80.225,35.173 82.516,32.92 	"/>
	<polygon fill="#FCB646" points="74.231,44.97 72.797,42.097 71.389,44.982 68.211,45.459 70.523,47.69 69.993,50.857 72.831,49.35 
		75.679,50.833 75.123,47.669 77.413,45.417 	"/>
	<polygon fill="#FCB646" points="79.858,17.391 78.424,14.518 77.016,17.403 73.839,17.88 76.15,20.111 75.62,23.279 78.458,21.771 
		81.307,23.253 80.75,20.091 83.04,17.838 	"/>
	<polygon fill="#FCB646" points="63.876,55.002 62.441,52.128 61.034,55.014 57.856,55.49 60.168,57.721 59.639,60.89 
		62.476,59.381 65.324,60.863 64.768,57.701 67.058,55.449 	"/>
	<polygon fill="#FCB646" points="49.758,59.382 48.324,56.508 46.915,59.395 43.738,59.871 46.05,62.103 45.52,65.271 
		48.357,63.762 51.206,65.245 50.649,62.082 52.94,59.83 	"/>
	<polygon fill="#FCB646" points="74.231,2.874 72.797,0 71.389,2.886 68.211,3.362 70.523,5.594 69.993,8.762 72.831,7.254 
		75.679,8.736 75.123,5.574 77.413,3.321 	"/>
</g>
</svg>
